<svg width="48" height="48" viewBox="0 0 48 48" fill="none" xmlns="http://www.w3.org/2000/svg">
<circle cx="24" cy="24" r="24" fill="#E97171"/>
<path d="M12.968 23.44V24.976H6.392V23.44H12.968ZM15.2874 21.216C15.3514 20.224 15.73 19.4507 16.4234 18.896C17.1274 18.3413 18.0234 18.064 19.1114 18.064C19.858 18.064 20.5034 18.1973 21.0474 18.464C21.5914 18.7307 22.002 19.0933 22.2794 19.552C22.5567 20.0107 22.6954 20.528 22.6954 21.104C22.6954 21.7653 22.5194 22.3307 22.1674 22.8C21.8154 23.2693 21.394 23.584 20.9034 23.744V23.808C21.5327 24 22.0234 24.352 22.3754 24.864C22.7274 25.3653 22.9034 26.0107 22.9034 26.8C22.9034 27.4293 22.7594 27.9893 22.4714 28.48C22.1834 28.9707 21.7567 29.36 21.1914 29.648C20.626 29.9253 19.9487 30.064 19.1594 30.064C18.0074 30.064 17.058 29.7707 16.3114 29.184C15.5754 28.5867 15.1807 27.7333 15.1274 26.624H16.8874C16.93 27.1893 17.1487 27.6533 17.5434 28.016C17.938 28.368 18.4714 28.544 19.1434 28.544C19.794 28.544 20.2954 28.368 20.6474 28.016C20.9994 27.6533 21.1754 27.1893 21.1754 26.624C21.1754 25.8773 20.9354 25.3493 20.4554 25.04C19.986 24.72 19.2607 24.56 18.2794 24.56H17.8634V23.056H18.2954C19.1594 23.0453 19.8154 22.9013 20.2634 22.624C20.722 22.3467 20.9514 21.9093 20.9514 21.312C20.9514 20.8 20.786 20.3947 20.4554 20.096C20.1247 19.7867 19.6554 19.632 19.0474 19.632C18.45 19.632 17.986 19.7867 17.6554 20.096C17.3247 20.3947 17.1274 20.768 17.0634 21.216H15.2874ZM24.8194 24.016C24.8194 22.1707 25.1287 20.7307 25.7474 19.696C26.3767 18.6507 27.454 18.128 28.9794 18.128C30.5047 18.128 31.5767 18.6507 32.1954 19.696C32.8247 20.7307 33.1394 22.1707 33.1394 24.016C33.1394 25.8827 32.8247 27.344 32.1954 28.4C31.5767 29.4453 30.5047 29.968 28.9794 29.968C27.454 29.968 26.3767 29.4453 25.7474 28.4C25.1287 27.344 24.8194 25.8827 24.8194 24.016ZM31.3474 24.016C31.3474 23.152 31.2887 22.4213 31.1714 21.824C31.0647 21.2267 30.8407 20.7413 30.4994 20.368C30.158 19.984 29.6514 19.792 28.9794 19.792C28.3074 19.792 27.8007 19.984 27.4594 20.368C27.118 20.7413 26.8887 21.2267 26.7714 21.824C26.6647 22.4213 26.6114 23.152 26.6114 24.016C26.6114 24.912 26.6647 25.664 26.7714 26.272C26.878 26.88 27.102 27.3707 27.4434 27.744C27.7954 28.1173 28.3074 28.304 28.9794 28.304C29.6514 28.304 30.158 28.1173 30.4994 27.744C30.8514 27.3707 31.0807 26.88 31.1874 26.272C31.294 25.664 31.3474 24.912 31.3474 24.016ZM34.7814 21.152C34.7814 20.3733 35.0054 19.7653 35.4534 19.328C35.912 18.88 36.4987 18.656 37.2134 18.656C37.928 18.656 38.5094 18.88 38.9574 19.328C39.416 19.7653 39.6454 20.3733 39.6454 21.152C39.6454 21.9307 39.416 22.544 38.9574 22.992C38.5094 23.44 37.928 23.664 37.2134 23.664C36.4987 23.664 35.912 23.44 35.4534 22.992C35.0054 22.544 34.7814 21.9307 34.7814 21.152ZM44.5414 18.864L38.1574 30H36.3654L42.7494 18.864H44.5414ZM37.2134 19.76C36.5414 19.76 36.2054 20.224 36.2054 21.152C36.2054 22.0907 36.5414 22.56 37.2134 22.56C37.5334 22.56 37.7787 22.448 37.9494 22.224C38.1307 21.9893 38.2214 21.632 38.2214 21.152C38.2214 20.224 37.8854 19.76 37.2134 19.76ZM41.2934 27.696C41.2934 26.9173 41.5174 26.3093 41.9654 25.872C42.424 25.424 43.0107 25.2 43.7254 25.2C44.4294 25.2 45.0054 25.424 45.4534 25.872C45.912 26.3093 46.1414 26.9173 46.1414 27.696C46.1414 28.4747 45.912 29.088 45.4534 29.536C45.0054 29.984 44.4294 30.208 43.7254 30.208C43.0107 30.208 42.424 29.984 41.9654 29.536C41.5174 29.088 41.2934 28.4747 41.2934 27.696ZM43.7094 26.304C43.0374 26.304 42.7014 26.768 42.7014 27.696C42.7014 28.624 43.0374 29.088 43.7094 29.088C44.3814 29.088 44.7174 28.624 44.7174 27.696C44.7174 26.768 44.3814 26.304 43.7094 26.304Z" fill="white"/>
</svg>
