<svg width="48" height="48" viewBox="0 0 48 48" fill="none" xmlns="http://www.w3.org/2000/svg">
<circle cx="24" cy="24" r="24" fill="#E97171"/>
<path d="M12.968 23.44V24.976H6.392V23.44H12.968ZM22.8394 19.904H17.4794V23.088C17.7034 22.7893 18.034 22.5387 18.4714 22.336C18.9194 22.1333 19.394 22.032 19.8954 22.032C20.7914 22.032 21.5167 22.224 22.0714 22.608C22.6367 22.992 23.0367 23.4773 23.2714 24.064C23.5167 24.6507 23.6394 25.2693 23.6394 25.92C23.6394 26.7093 23.4847 27.4133 23.1754 28.032C22.8767 28.64 22.4234 29.12 21.8154 29.472C21.218 29.824 20.482 30 19.6074 30C18.4447 30 17.5114 29.712 16.8074 29.136C16.1034 28.56 15.682 27.7973 15.5434 26.848H17.3194C17.4367 27.3493 17.698 27.7493 18.1034 28.048C18.5087 28.336 19.0154 28.48 19.6234 28.48C20.3807 28.48 20.946 28.2507 21.3194 27.792C21.7034 27.3333 21.8954 26.7253 21.8954 25.968C21.8954 25.2 21.7034 24.6133 21.3194 24.208C20.9354 23.792 20.37 23.584 19.6234 23.584C19.1007 23.584 18.658 23.7173 18.2954 23.984C17.9434 24.24 17.6874 24.592 17.5274 25.04H15.7994V18.304H22.8394V19.904ZM25.5381 24.016C25.5381 22.1707 25.8475 20.7307 26.4661 19.696C27.0955 18.6507 28.1728 18.128 29.6981 18.128C31.2235 18.128 32.2955 18.6507 32.9141 19.696C33.5435 20.7307 33.8581 22.1707 33.8581 24.016C33.8581 25.8827 33.5435 27.344 32.9141 28.4C32.2955 29.4453 31.2235 29.968 29.6981 29.968C28.1728 29.968 27.0955 29.4453 26.4661 28.4C25.8475 27.344 25.5381 25.8827 25.5381 24.016ZM32.0661 24.016C32.0661 23.152 32.0075 22.4213 31.8901 21.824C31.7835 21.2267 31.5595 20.7413 31.2181 20.368C30.8768 19.984 30.3701 19.792 29.6981 19.792C29.0261 19.792 28.5195 19.984 28.1781 20.368C27.8368 20.7413 27.6075 21.2267 27.4901 21.824C27.3835 22.4213 27.3301 23.152 27.3301 24.016C27.3301 24.912 27.3835 25.664 27.4901 26.272C27.5968 26.88 27.8208 27.3707 28.1621 27.744C28.5141 28.1173 29.0261 28.304 29.6981 28.304C30.3701 28.304 30.8768 28.1173 31.2181 27.744C31.5701 27.3707 31.7995 26.88 31.9061 26.272C32.0128 25.664 32.0661 24.912 32.0661 24.016ZM35.5001 21.152C35.5001 20.3733 35.7241 19.7653 36.1721 19.328C36.6308 18.88 37.2175 18.656 37.9321 18.656C38.6468 18.656 39.2281 18.88 39.6761 19.328C40.1348 19.7653 40.3641 20.3733 40.3641 21.152C40.3641 21.9307 40.1348 22.544 39.6761 22.992C39.2281 23.44 38.6468 23.664 37.9321 23.664C37.2175 23.664 36.6308 23.44 36.1721 22.992C35.7241 22.544 35.5001 21.9307 35.5001 21.152ZM45.2601 18.864L38.8761 30H37.0841L43.4681 18.864H45.2601ZM37.9321 19.76C37.2601 19.76 36.9241 20.224 36.9241 21.152C36.9241 22.0907 37.2601 22.56 37.9321 22.56C38.2521 22.56 38.4975 22.448 38.6681 22.224C38.8495 21.9893 38.9401 21.632 38.9401 21.152C38.9401 20.224 38.6041 19.76 37.9321 19.76ZM42.0121 27.696C42.0121 26.9173 42.2361 26.3093 42.6841 25.872C43.1428 25.424 43.7295 25.2 44.4441 25.2C45.1481 25.2 45.7241 25.424 46.1721 25.872C46.6308 26.3093 46.8601 26.9173 46.8601 27.696C46.8601 28.4747 46.6308 29.088 46.1721 29.536C45.7241 29.984 45.1481 30.208 44.4441 30.208C43.7295 30.208 43.1428 29.984 42.6841 29.536C42.2361 29.088 42.0121 28.4747 42.0121 27.696ZM44.4281 26.304C43.7561 26.304 43.4201 26.768 43.4201 27.696C43.4201 28.624 43.7561 29.088 44.4281 29.088C45.1001 29.088 45.4361 28.624 45.4361 27.696C45.4361 26.768 45.1001 26.304 44.4281 26.304Z" fill="white"/>
</svg>
