<svg width="48" height="48" viewBox="0 0 48 48" fill="none" xmlns="http://www.w3.org/2000/svg">
<circle cx="24" cy="24" r="24" fill="#2EC1AC"/>
<path d="M18.336 30H16.512L11.024 21.696V30H9.2V18.864H11.024L16.512 27.152V18.864H18.336V30ZM28.8113 25.376C28.8113 25.7067 28.7899 26.0053 28.7473 26.272H22.0113C22.0646 26.976 22.3259 27.5413 22.7953 27.968C23.2646 28.3947 23.8406 28.608 24.5233 28.608C25.5046 28.608 26.1979 28.1973 26.6033 27.376H28.5712C28.3046 28.1867 27.8193 28.8533 27.1153 29.376C26.4219 29.888 25.5579 30.144 24.5233 30.144C23.6806 30.144 22.9233 29.9573 22.2513 29.584C21.5899 29.2 21.0673 28.6667 20.6833 27.984C20.3099 27.2907 20.1233 26.4907 20.1233 25.584C20.1233 24.6773 20.3046 23.8827 20.6673 23.2C21.0406 22.5067 21.5579 21.9733 22.2193 21.6C22.8913 21.2267 23.6593 21.04 24.5233 21.04C25.3553 21.04 26.0966 21.2213 26.7473 21.584C27.3979 21.9467 27.9046 22.4587 28.2673 23.12C28.6299 23.7707 28.8113 24.5227 28.8113 25.376ZM26.9073 24.8C26.8966 24.128 26.6566 23.5893 26.1873 23.184C25.7179 22.7787 25.1366 22.576 24.4433 22.576C23.8139 22.576 23.2753 22.7787 22.8273 23.184C22.3793 23.5787 22.1126 24.1173 22.0273 24.8H26.9073ZM42.4463 21.184L39.7103 30H37.7903L36.0143 23.488L34.2383 30H32.3183L29.5663 21.184H31.4223L33.2623 28.272L35.1343 21.184H37.0383L38.8303 28.24L40.6543 21.184H42.4463Z" fill="white"/>
</svg>
